<svg width="23" height="23" viewBox="0 0 23 23" fill="none" xmlns="http://www.w3.org/2000/svg">
<path d="M10 3.00003H3C2.172 3.00003 1.42 3.33703 0.879 3.87903C0.338 4.42103 0 5.17203 0 6.00003V20C0 20.828 0.337 21.58 0.879 22.121C1.421 22.662 2.172 23 3 23H17C17.828 23 18.58 22.663 19.121 22.121C19.662 21.579 20 20.828 20 20V13C20 12.448 19.552 12 19 12C18.448 12 18 12.448 18 13V20C18 20.276 17.889 20.525 17.707 20.707C17.525 20.889 17.276 21 17 21H3C2.724 21 2.475 20.889 2.293 20.707C2.111 20.525 2 20.276 2 20V6.00003C2 5.72403 2.111 5.47503 2.293 5.29303C2.475 5.11103 2.724 5.00003 3 5.00003H10C10.552 5.00003 11 4.55203 11 4.00003C11 3.44803 10.552 3.00003 10 3.00003ZM16.793 1.79303L7.293 11.293C7.171 11.414 7.076 11.573 7.03 11.758L6.03 15.758C5.991 15.908 5.988 16.076 6.03 16.243C6.164 16.779 6.707 17.105 7.243 16.971L11.243 15.971C11.41 15.93 11.573 15.842 11.708 15.708L21.208 6.20803C21.817 5.59903 22.122 4.79803 22.122 4.00103C22.122 3.20403 21.817 2.40303 21.208 1.79403C20.599 1.18503 19.797 0.879028 19 0.879028C18.203 0.879028 17.402 1.18403 16.793 1.79303ZM18.207 3.20703C18.426 2.98803 18.711 2.87903 19 2.87903C19.289 2.87903 19.574 2.98803 19.793 3.20703C20.012 3.42603 20.121 3.71103 20.121 4.00003C20.121 4.28903 20.012 4.57403 19.793 4.79303L10.489 14.097L8.375 14.626L8.904 12.512L18.207 3.20703Z" fill="#042222"/>
</svg>
