<svg width="20" height="20" viewBox="0 0 20 20" fill="none" xmlns="http://www.w3.org/2000/svg">
<path d="M7 18H3C2.724 18 2.475 17.889 2.293 17.707C2.111 17.525 2 17.276 2 17V3C2 2.724 2.111 2.475 2.293 2.293C2.475 2.111 2.724 2 3 2H7C7.552 2 8 1.552 8 1C8 0.448 7.552 0 7 0H3C2.172 0 1.42 0.337 0.879 0.879C0.338 1.421 0 2.172 0 3V17C0 17.828 0.337 18.58 0.879 19.121C1.421 19.662 2.172 20 3 20H7C7.552 20 8 19.552 8 19C8 18.448 7.552 18 7 18ZM16.586 9H7C6.448 9 6 9.448 6 10C6 10.552 6.448 11 7 11H16.586L13.293 14.293C12.902 14.684 12.902 15.317 13.293 15.707C13.684 16.097 14.317 16.098 14.707 15.707L19.707 10.707C19.799 10.615 19.873 10.505 19.924 10.383C20.074 10.021 20.002 9.588 19.707 9.293L14.707 4.293C14.316 3.902 13.683 3.902 13.293 4.293C12.903 4.684 12.902 5.317 13.293 5.707L16.586 9Z" fill="#F1F7F7"/>
</svg>
