<svg width="127" height="25" viewBox="0 0 127 25" fill="none" xmlns="http://www.w3.org/2000/svg">
<path d="M7.288 24C7.13867 24 6.84 23.9787 6.392 23.936C5.944 23.872 5.432 23.7973 4.856 23.712C4.28 23.6267 3.704 23.5413 3.128 23.456C2.552 23.3493 2.02933 23.2533 1.56 23.168C1.112 23.0613 0.802667 22.976 0.632 22.912C0.632 22.7413 0.664 22.5813 0.728 22.432C0.792 22.2827 0.866667 22.1653 0.952 22.08L1.88 21.952C2.30667 21.888 2.63733 21.7707 2.872 21.6C3.10667 21.4293 3.26667 21.12 3.352 20.672C3.43733 20.224 3.48 19.5627 3.48 18.688V5.792C3.48 5.216 3.512 4.74667 3.576 4.384C3.66133 4.02133 3.74667 3.744 3.832 3.552C3.93867 3.36 4.024 3.24267 4.088 3.2H0.984C0.898667 3.136 0.813333 3.05066 0.728 2.944C0.664 2.816 0.621333 2.67733 0.6 2.528C0.728 2.37867 0.92 2.22933 1.176 2.08C1.432 1.90933 1.69867 1.77067 1.976 1.664C2.25333 1.536 2.456 1.472 2.584 1.472H15.16C15.7147 1.64267 16.28 1.89867 16.856 2.24C17.432 2.56 17.88 2.90133 18.2 3.264C18.1147 4.43733 17.976 5.504 17.784 6.464C17.592 7.424 17.4213 8.11733 17.272 8.544C16.888 8.544 16.5253 8.512 16.184 8.448C15.8427 8.36267 15.5973 8.288 15.448 8.224L14.68 3.744C14.104 3.616 13.272 3.49866 12.184 3.392C11.096 3.264 9.95467 3.2 8.76 3.2C7.94933 3.2 7.42667 3.456 7.192 3.968C6.95733 4.48 6.84 5.088 6.84 5.792V11.776C7.77867 11.776 8.67467 11.7547 9.528 11.712C10.3813 11.6693 11.1813 11.616 11.928 11.552C12.696 11.488 13.3893 11.424 14.008 11.36L14.328 11.68C14.3067 12.192 14.2533 12.6293 14.168 12.992C14.0827 13.3333 14.008 13.5787 13.944 13.728H6.84V19.584C6.84 20.1173 6.776 20.576 6.648 20.96C6.52 21.344 6.392 21.6107 6.264 21.76L9.656 22.144C9.72 22.208 9.77333 22.3147 9.816 22.464C9.88 22.592 9.912 22.7413 9.912 22.912C9.63467 23.168 9.22933 23.4133 8.696 23.648C8.16267 23.8827 7.69333 24 7.288 24ZM25.7833 24C25.6339 24 25.3033 23.968 24.7913 23.904C24.2793 23.8187 23.7139 23.7227 23.0953 23.616C22.4766 23.488 21.8899 23.36 21.3353 23.232C20.8019 23.104 20.4073 22.9973 20.1513 22.912C20.1513 22.7413 20.1833 22.5813 20.2473 22.432C20.3326 22.2827 20.4073 22.176 20.4713 22.112L21.3673 21.952C21.6019 21.9093 21.8046 21.824 21.9753 21.696C22.1459 21.5467 22.2739 21.3013 22.3593 20.96C22.4659 20.5973 22.5193 20.0747 22.5193 19.392V11.36C22.5193 11.168 22.4873 11.008 22.4233 10.88C22.3593 10.7307 22.2313 10.624 22.0393 10.56L20.0872 9.856C20.1086 9.62133 20.1513 9.41867 20.2153 9.248C20.3006 9.07733 20.3859 8.96 20.4713 8.896C20.8339 8.68267 21.3033 8.48 21.8793 8.288C22.4766 8.096 22.9566 8 23.3193 8C23.9166 8 24.4393 8.23467 24.8873 8.704C25.3566 9.17333 25.5913 9.728 25.5913 10.368V20.032C25.5913 20.4587 25.5486 20.8427 25.4633 21.184C25.3779 21.504 25.2926 21.728 25.2073 21.856L27.9913 22.144C28.0339 22.1867 28.0766 22.272 28.1193 22.4C28.1833 22.528 28.2153 22.688 28.2153 22.88C28.1086 23.0507 27.8953 23.2213 27.5753 23.392C27.2766 23.5627 26.9566 23.712 26.6153 23.84C26.2953 23.9467 26.0179 24 25.7833 24ZM23.3193 4.8C23.1699 4.8 22.9779 4.704 22.7433 4.512C22.5086 4.32 22.2846 4.096 22.0713 3.84C21.8579 3.56267 21.6766 3.28533 21.5273 3.008C21.3779 2.73067 21.3033 2.50667 21.3033 2.336C21.3033 2.16533 21.3993 1.97333 21.5913 1.76C21.8046 1.54667 22.0499 1.344 22.3273 1.152C22.6259 0.959998 22.9139 0.799999 23.1913 0.671999C23.4899 0.522665 23.7246 0.447998 23.8953 0.447998C24.0659 0.447998 24.2579 0.543998 24.4713 0.735998C24.6846 0.927998 24.8873 1.16267 25.0793 1.44C25.2926 1.71733 25.4633 1.99467 25.5913 2.272C25.7406 2.54933 25.8153 2.784 25.8153 2.976C25.8153 3.12533 25.7193 3.30667 25.5273 3.52C25.3566 3.712 25.1326 3.91467 24.8553 4.128C24.5779 4.32 24.3006 4.48 24.0233 4.608C23.7459 4.736 23.5113 4.8 23.3193 4.8ZM35.5973 24C35.4266 24 35.0853 23.968 34.5733 23.904C34.0826 23.8187 33.5279 23.7227 32.9093 23.616C32.3119 23.488 31.7359 23.36 31.1813 23.232C30.6479 23.104 30.2533 22.9973 29.9973 22.912C29.9973 22.7413 30.0293 22.5813 30.0933 22.432C30.1786 22.2827 30.2533 22.176 30.3173 22.112L31.2133 21.952C31.5759 21.888 31.8533 21.7067 32.0453 21.408C32.2586 21.088 32.3653 20.416 32.3653 19.392V11.36C32.3653 11.1893 32.3333 11.0293 32.2693 10.88C32.2266 10.7307 32.1093 10.624 31.9173 10.56L29.8372 9.856C29.8799 9.57867 29.9333 9.36533 29.9973 9.216C30.0613 9.06667 30.1359 8.96 30.2213 8.896C30.5839 8.68267 31.0533 8.48 31.6293 8.288C32.2266 8.096 32.7066 8 33.0693 8C33.6666 8 34.1893 8.21333 34.6373 8.64C35.1066 9.04533 35.3413 9.55733 35.3413 10.176C35.8533 9.856 36.3759 9.52533 36.9093 9.184C37.4426 8.84267 37.9439 8.56533 38.4133 8.352C38.9039 8.11733 39.3413 8 39.7253 8C40.2159 8 40.7493 8.096 41.3253 8.288C41.9226 8.48 42.4986 8.736 43.0533 9.056C43.6079 9.376 44.0559 9.71733 44.3973 10.08C44.7386 10.4427 44.9093 10.8053 44.9093 11.168V20.032C44.9093 20.4587 44.8666 20.8427 44.7812 21.184C44.6959 21.504 44.6213 21.728 44.5573 21.856L47.3093 22.144C47.3519 22.1867 47.3946 22.2827 47.4373 22.432C47.5013 22.56 47.5333 22.7093 47.5333 22.88C47.4266 23.0507 47.2133 23.2213 46.8933 23.392C46.5946 23.5627 46.2746 23.712 45.9333 23.84C45.6133 23.9467 45.3466 24 45.1333 24C44.9626 24 44.6319 23.968 44.1413 23.904C43.6506 23.8187 43.1066 23.7227 42.5093 23.616C41.9119 23.488 41.3466 23.36 40.8133 23.232C40.2799 23.104 39.8853 22.9973 39.6293 22.912C39.6293 22.72 39.6613 22.56 39.7253 22.432C39.8106 22.2827 39.8853 22.176 39.9493 22.112L40.7493 21.952C40.9839 21.9093 41.1759 21.8347 41.3253 21.728C41.4959 21.6 41.6239 21.3653 41.7093 21.024C41.7946 20.6613 41.8373 20.1173 41.8373 19.392V12.384C41.8373 12.1707 41.7199 11.9573 41.4853 11.744C41.2719 11.5093 40.9946 11.3067 40.6533 11.136C40.3333 10.9653 40.0239 10.8267 39.7253 10.72C39.4266 10.6133 39.2026 10.56 39.0533 10.56C38.9039 10.56 38.6586 10.6133 38.3173 10.72C37.9973 10.8053 37.6453 10.9227 37.2613 11.072C36.8986 11.2213 36.5466 11.36 36.2053 11.488C35.8639 11.616 35.6079 11.712 35.4373 11.776V19.968C35.4373 20.3947 35.3946 20.7787 35.3093 21.12C35.2239 21.44 35.1386 21.6853 35.0533 21.856L37.7093 22.144C37.7519 22.1867 37.7946 22.2827 37.8373 22.432C37.9013 22.56 37.9333 22.7093 37.9333 22.88C37.8266 23.0507 37.6239 23.2213 37.3253 23.392C37.0479 23.5627 36.7386 23.712 36.3973 23.84C36.0773 23.9467 35.8106 24 35.5973 24ZM54.048 24.128C53.664 24.128 53.1947 24 52.64 23.744C52.1067 23.4667 51.6053 23.168 51.136 22.848C50.688 22.528 50.3893 22.2827 50.24 22.112C50.0907 21.92 49.952 21.5573 49.824 21.024C49.7173 20.4693 49.664 19.8507 49.664 19.168C49.664 18.9333 49.6747 18.7093 49.696 18.496C49.7173 18.2613 49.7387 18.0373 49.76 17.824C49.7813 17.7173 49.8987 17.5573 50.112 17.344C50.3467 17.1093 50.624 16.864 50.944 16.608C51.264 16.352 51.584 16.128 51.904 15.936C52.2453 15.744 52.5333 15.6267 52.768 15.584C52.9173 15.5413 53.1627 15.5093 53.504 15.488C53.8453 15.4667 54.2293 15.4453 54.656 15.424C54.9547 15.4027 55.264 15.3813 55.584 15.36C55.9253 15.3173 56.2667 15.2747 56.608 15.232C56.9493 15.1893 57.28 15.1467 57.6 15.104C57.9413 15.04 58.272 14.976 58.592 14.912V11.328C58.08 11.0507 57.4293 10.8267 56.64 10.656C55.8507 10.4853 55.136 10.4 54.496 10.4C54.304 10.4 54.1333 10.4107 53.984 10.432C53.8347 10.432 53.696 10.4427 53.568 10.464L52.608 13.056C52.5227 13.0773 52.384 13.1307 52.192 13.216C52.0213 13.28 51.7547 13.3227 51.392 13.344C51.2 13.1093 50.9547 12.7467 50.656 12.256C50.3787 11.744 50.1867 11.1787 50.08 10.56C50.4853 10.1547 50.9547 9.792 51.488 9.472C52.0427 9.152 52.6293 8.88533 53.248 8.672C53.8667 8.45867 54.4747 8.29867 55.072 8.192C55.6907 8.064 56.2667 8 56.8 8C57.12 8 57.5467 8.10667 58.08 8.32C58.6347 8.512 59.1787 8.768 59.712 9.088C60.2667 9.38667 60.7253 9.70667 61.088 10.048C61.472 10.368 61.664 10.656 61.664 10.912V21.76L64.064 22.048C64.1067 22.112 64.16 22.2187 64.224 22.368C64.288 22.496 64.32 22.656 64.32 22.848C64.2133 23.04 64 23.2213 63.68 23.392C63.36 23.5627 63.0293 23.712 62.688 23.84C62.3467 23.9467 62.0587 24 61.824 24C61.4187 24 61.024 23.9147 60.64 23.744C60.256 23.5733 59.9147 23.36 59.616 23.104C59.3387 22.8267 59.1147 22.5387 58.944 22.24C58.4747 22.4747 57.9307 22.7413 57.312 23.04C56.6933 23.3387 56.0853 23.5947 55.488 23.808C54.912 24.0213 54.432 24.128 54.048 24.128ZM55.008 21.696C55.2427 21.696 55.584 21.6427 56.032 21.536C56.5013 21.408 56.9707 21.2693 57.44 21.12C57.9307 20.9493 58.3147 20.8 58.592 20.672V16.768C58.1227 16.896 57.6 17.0027 57.024 17.088C56.4693 17.1733 55.9573 17.2373 55.488 17.28C54.9333 17.344 54.3893 17.4187 53.856 17.504C53.344 17.5893 52.9493 17.728 52.672 17.92C52.672 18.2827 52.6827 18.72 52.704 19.232C52.7467 19.7227 52.832 20.16 52.96 20.544C53.1093 20.736 53.3867 20.9813 53.792 21.28C54.2187 21.5573 54.624 21.696 55.008 21.696ZM71.691 24C71.5203 24 71.179 23.968 70.667 23.904C70.1763 23.8187 69.6217 23.7227 69.003 23.616C68.4057 23.488 67.8297 23.36 67.275 23.232C66.7417 23.104 66.347 22.9973 66.091 22.912C66.091 22.7413 66.123 22.5813 66.187 22.432C66.2723 22.2827 66.347 22.176 66.411 22.112L67.307 21.952C67.6697 21.888 67.947 21.7067 68.139 21.408C68.3523 21.088 68.459 20.416 68.459 19.392V11.36C68.459 11.1893 68.427 11.0293 68.363 10.88C68.3203 10.7307 68.203 10.624 68.011 10.56L65.931 9.856C65.9737 9.57867 66.027 9.36533 66.091 9.216C66.155 9.06667 66.2297 8.96 66.315 8.896C66.6777 8.68267 67.147 8.48 67.723 8.288C68.3203 8.096 68.8003 8 69.163 8C69.7603 8 70.283 8.21333 70.731 8.64C71.2003 9.04533 71.435 9.55733 71.435 10.176C71.947 9.856 72.4697 9.52533 73.003 9.184C73.5363 8.84267 74.0377 8.56533 74.507 8.352C74.9977 8.11733 75.435 8 75.819 8C76.3097 8 76.843 8.096 77.419 8.288C78.0163 8.48 78.5923 8.736 79.147 9.056C79.7017 9.376 80.1497 9.71733 80.491 10.08C80.8323 10.4427 81.003 10.8053 81.003 11.168V20.032C81.003 20.4587 80.9603 20.8427 80.875 21.184C80.7897 21.504 80.715 21.728 80.651 21.856L83.403 22.144C83.4457 22.1867 83.4883 22.2827 83.531 22.432C83.595 22.56 83.627 22.7093 83.627 22.88C83.5203 23.0507 83.307 23.2213 82.987 23.392C82.6883 23.5627 82.3683 23.712 82.027 23.84C81.707 23.9467 81.4403 24 81.227 24C81.0563 24 80.7257 23.968 80.235 23.904C79.7443 23.8187 79.2003 23.7227 78.603 23.616C78.0057 23.488 77.4403 23.36 76.907 23.232C76.3737 23.104 75.979 22.9973 75.723 22.912C75.723 22.72 75.755 22.56 75.819 22.432C75.9043 22.2827 75.979 22.176 76.043 22.112L76.843 21.952C77.0777 21.9093 77.2697 21.8347 77.419 21.728C77.5897 21.6 77.7177 21.3653 77.803 21.024C77.8883 20.6613 77.931 20.1173 77.931 19.392V12.384C77.931 12.1707 77.8137 11.9573 77.579 11.744C77.3657 11.5093 77.0883 11.3067 76.747 11.136C76.427 10.9653 76.1177 10.8267 75.819 10.72C75.5203 10.6133 75.2963 10.56 75.147 10.56C74.9977 10.56 74.7523 10.6133 74.411 10.72C74.091 10.8053 73.739 10.9227 73.355 11.072C72.9923 11.2213 72.6403 11.36 72.299 11.488C71.9577 11.616 71.7017 11.712 71.531 11.776V19.968C71.531 20.3947 71.4883 20.7787 71.403 21.12C71.3177 21.44 71.2323 21.6853 71.147 21.856L73.803 22.144C73.8457 22.1867 73.8883 22.2827 73.931 22.432C73.995 22.56 74.027 22.7093 74.027 22.88C73.9203 23.0507 73.7177 23.2213 73.419 23.392C73.1417 23.5627 72.8323 23.712 72.491 23.84C72.171 23.9467 71.9043 24 71.691 24ZM92.2538 24C91.6778 24 91.0804 23.8933 90.4618 23.68C89.8431 23.4453 89.2564 23.168 88.7018 22.848C88.1684 22.528 87.7098 22.2293 87.3258 21.952C86.9418 21.6533 86.6964 21.4293 86.5898 21.28C86.3338 20.9813 86.1204 20.4373 85.9498 19.648C85.7791 18.8373 85.6938 17.9733 85.6938 17.056C85.6938 16.1813 85.7258 15.3493 85.7898 14.56C85.8751 13.7707 85.9818 13.056 86.1098 12.416C86.2378 11.7547 86.3658 11.2213 86.4938 10.816C86.7498 10.624 87.1124 10.3787 87.5818 10.08C88.0724 9.78133 88.6377 9.472 89.2778 9.152C89.9178 8.832 90.5791 8.56533 91.2618 8.352C91.9658 8.11733 92.6591 8 93.3418 8C93.6404 8 94.0244 8.10667 94.4938 8.32C94.9844 8.53333 95.4644 8.8 95.9338 9.12C96.4031 9.41867 96.7978 9.70667 97.1178 9.984C97.4591 10.2613 97.6404 10.464 97.6618 10.592C97.6831 10.7627 97.6191 11.0507 97.4698 11.456C97.3204 11.84 97.1284 12.224 96.8938 12.608C96.6804 12.9707 96.4778 13.2373 96.2858 13.408C96.0724 13.408 95.8591 13.376 95.6458 13.312C95.4538 13.248 95.2831 13.1733 95.1338 13.088C95.0058 12.8107 94.8351 12.4693 94.6218 12.064C94.4084 11.6373 94.1844 11.2533 93.9498 10.912C93.7151 10.5707 93.5018 10.4 93.3098 10.4C92.7124 10.4 92.1364 10.464 91.5818 10.592C91.0271 10.72 90.5364 10.8693 90.1098 11.04C89.7044 11.1893 89.3951 11.3173 89.1818 11.424C89.1178 11.6373 89.0431 11.9573 88.9578 12.384C88.8938 12.8107 88.8404 13.2693 88.7977 13.76C88.7551 14.2293 88.7338 14.6667 88.7338 15.072C88.7338 15.7973 88.7658 16.5013 88.8298 17.184C88.8938 17.8453 88.9684 18.4107 89.0538 18.88C89.1604 19.328 89.2458 19.6053 89.3098 19.712C89.3738 19.7973 89.5338 19.936 89.7898 20.128C90.0458 20.2987 90.3444 20.5013 90.6858 20.736C91.0271 20.9707 91.3684 21.1733 91.7098 21.344C92.0724 21.4933 92.3711 21.568 92.6058 21.568C92.9258 21.568 93.3844 21.5253 93.9818 21.44C94.5791 21.3547 95.1444 21.2587 95.6778 21.152C96.2324 21.024 96.6058 20.9387 96.7978 20.896C96.8831 20.96 96.9578 21.0773 97.0218 21.248C97.1071 21.3973 97.1498 21.568 97.1498 21.76C96.7658 22.08 96.3284 22.4213 95.8378 22.784C95.3471 23.1253 94.8031 23.4133 94.2058 23.648C93.6298 23.8827 92.9791 24 92.2538 24ZM106.316 24C105.74 24 105.143 23.8933 104.524 23.68C103.906 23.4453 103.319 23.168 102.764 22.848C102.231 22.528 101.772 22.2293 101.388 21.952C101.004 21.6533 100.759 21.4293 100.652 21.28C100.396 20.9813 100.183 20.4373 100.012 19.648C99.8416 18.8373 99.7563 17.9733 99.7563 17.056C99.7563 16.1813 99.7883 15.3493 99.8523 14.56C99.9376 13.7707 100.044 13.056 100.172 12.416C100.3 11.7547 100.428 11.2213 100.556 10.816C100.855 10.624 101.26 10.368 101.772 10.048C102.284 9.728 102.86 9.41867 103.5 9.12C104.162 8.8 104.834 8.53333 105.516 8.32C106.22 8.10667 106.892 8 107.532 8C107.852 8 108.268 8.11733 108.78 8.352C109.314 8.58667 109.815 8.864 110.284 9.184C110.775 9.48267 111.106 9.74933 111.276 9.984C111.404 10.1333 111.511 10.432 111.596 10.88C111.703 11.328 111.788 11.8293 111.852 12.384C111.916 12.9173 111.948 13.4293 111.948 13.92C111.714 14.24 111.436 14.5493 111.116 14.848C110.818 15.1467 110.508 15.4027 110.188 15.616C109.89 15.8293 109.623 16 109.388 16.128C109.196 16.192 108.78 16.2773 108.14 16.384C107.522 16.4693 106.754 16.5547 105.836 16.64C104.919 16.704 103.906 16.736 102.796 16.736C102.839 17.4187 102.914 18.0587 103.02 18.656C103.127 19.2533 103.223 19.6053 103.308 19.712C103.372 19.7973 103.543 19.936 103.82 20.128C104.098 20.32 104.407 20.5333 104.748 20.768C105.111 20.9813 105.463 21.1733 105.804 21.344C106.167 21.4933 106.455 21.568 106.668 21.568C106.924 21.568 107.266 21.536 107.692 21.472C108.14 21.3867 108.61 21.3013 109.1 21.216C109.612 21.1307 110.071 21.0453 110.476 20.96C110.882 20.8747 111.17 20.8107 111.34 20.768C111.426 20.8533 111.511 20.9707 111.596 21.12C111.703 21.248 111.756 21.4293 111.756 21.664C111.351 22.0053 110.86 22.3573 110.284 22.72C109.73 23.0827 109.111 23.392 108.428 23.648C107.767 23.8827 107.063 24 106.316 24ZM105.068 14.88C105.559 14.88 106.071 14.8587 106.604 14.816C107.138 14.752 107.628 14.6773 108.076 14.592C108.546 14.5067 108.876 14.4 109.068 14.272C109.068 14.016 109.047 13.7067 109.004 13.344C108.962 12.9813 108.919 12.64 108.876 12.32C108.834 12 108.802 11.7973 108.78 11.712C108.759 11.6267 108.61 11.488 108.332 11.296C108.055 11.104 107.746 10.9333 107.404 10.784C107.063 10.6347 106.775 10.56 106.54 10.56C106.348 10.56 106.018 10.6133 105.548 10.72C105.1 10.8053 104.642 10.912 104.172 11.04C103.724 11.168 103.394 11.296 103.18 11.424C103.095 11.6587 103.02 11.9573 102.956 12.32C102.914 12.6613 102.871 13.024 102.828 13.408C102.786 13.792 102.764 14.176 102.764 14.56C102.978 14.6667 103.308 14.752 103.756 14.816C104.226 14.8587 104.663 14.88 105.068 14.88ZM119.724 24C119.19 24 118.625 23.8933 118.028 23.68C117.43 23.4667 116.865 23.2107 116.332 22.912C115.798 22.6133 115.361 22.3253 115.02 22.048C114.678 21.7707 114.486 21.568 114.444 21.44C114.444 21.0133 114.55 20.544 114.764 20.032C114.977 19.4987 115.201 19.0613 115.436 18.72C115.713 18.72 115.948 18.752 116.14 18.816C116.353 18.88 116.492 18.9333 116.556 18.976C116.705 19.296 116.908 19.712 117.164 20.224C117.441 20.7147 117.718 21.12 117.996 21.44C118.209 21.4827 118.444 21.5147 118.7 21.536C118.977 21.5573 119.254 21.568 119.532 21.568C120.129 21.568 120.758 21.5467 121.42 21.504C122.102 21.44 122.678 21.3227 123.148 21.152C123.212 20.96 123.265 20.6933 123.308 20.352C123.372 20.0107 123.404 19.68 123.404 19.36C123.404 19.1893 123.393 19.008 123.372 18.816C123.372 18.6027 123.35 18.4213 123.308 18.272C123.244 18.1867 122.934 18.0587 122.38 17.888C121.846 17.7173 121.185 17.5253 120.396 17.312C119.606 17.0987 118.806 16.8747 117.996 16.64C117.206 16.4053 116.513 16.1813 115.916 15.968C115.34 15.7547 114.988 15.5627 114.86 15.392C114.796 15.1573 114.753 14.88 114.732 14.56C114.71 14.24 114.7 13.8987 114.7 13.536C114.7 12.9387 114.753 12.352 114.86 11.776C114.966 11.1787 115.094 10.688 115.244 10.304C115.5 10.1333 115.873 9.92 116.364 9.664C116.854 9.408 117.398 9.152 117.996 8.896C118.593 8.64 119.201 8.42667 119.82 8.256C120.438 8.08533 121.014 8 121.548 8C121.91 8 122.358 8.096 122.892 8.288C123.425 8.48 123.948 8.71467 124.46 8.992C124.972 9.248 125.398 9.504 125.74 9.76C126.081 10.016 126.252 10.1973 126.252 10.304C126.252 10.4533 126.177 10.7413 126.028 11.168C125.9 11.5947 125.729 12.032 125.516 12.48C125.324 12.9067 125.132 13.1947 124.94 13.344C124.684 13.344 124.449 13.312 124.236 13.248C124.022 13.1627 123.873 13.088 123.788 13.024C123.425 12.32 123.158 11.7227 122.988 11.232C122.838 10.72 122.678 10.464 122.508 10.464C121.974 10.464 121.388 10.496 120.748 10.56C120.129 10.6027 119.564 10.6667 119.052 10.752C118.54 10.816 118.188 10.8693 117.996 10.912C117.953 11.104 117.921 11.3493 117.9 11.648C117.878 11.9253 117.868 12.192 117.868 12.448C117.868 12.7467 117.878 13.024 117.9 13.28C117.921 13.536 117.953 13.76 117.996 13.952C118.081 14.016 118.38 14.112 118.892 14.24C119.404 14.368 120.033 14.528 120.78 14.72C121.548 14.8907 122.316 15.0827 123.084 15.296C123.873 15.5093 124.566 15.744 125.164 16C125.782 16.2347 126.209 16.48 126.444 16.736C126.508 16.9493 126.55 17.1947 126.572 17.472C126.614 17.7493 126.636 18.048 126.636 18.368C126.636 19.072 126.561 19.776 126.412 20.48C126.284 21.1627 126.156 21.632 126.028 21.888C125.772 22.08 125.409 22.304 124.94 22.56C124.492 22.7947 123.98 23.0293 123.404 23.264C122.828 23.4773 122.22 23.6587 121.58 23.808C120.94 23.936 120.321 24 119.724 24Z" fill="#F1F7F7"/>
</svg>
