<svg width="20" height="20" viewBox="0 0 20 20" fill="none" xmlns="http://www.w3.org/2000/svg">
<path d="M10 18.016C12.1873 18.016 14.07 17.227 15.648 15.649C17.226 14.071 18.015 12.1883 18.015 10.001C18.015 7.81366 17.226 5.93099 15.648 4.35299C14.07 2.77499 12.1873 1.98599 10 1.98599C7.81268 1.98599 5.93001 2.77499 4.35201 4.35299C2.77401 5.93099 1.98501 7.81366 1.98501 10.001C1.98501 12.1883 2.77401 14.071 4.35201 15.649C5.93001 17.227 7.81268 18.016 10 18.016ZM10 0.0159912C12.75 0.0159912 15.1017 0.992658 17.055 2.94599C19.0083 4.89932 19.985 7.25099 19.985 10.001C19.985 12.751 19.0083 15.1027 17.055 17.056C15.1017 19.0093 12.75 19.986 10 19.986C7.25001 19.986 4.89835 19.0093 2.94501 17.056C0.991681 15.1027 0.0150146 12.751 0.0150146 10.001C0.0150146 7.25099 0.991681 4.89932 2.94501 2.94599C4.89835 0.992658 7.25001 0.0159912 10 0.0159912ZM4.98401 9.01599H15.015V10.985H4.98401V9.01599Z" fill="#E84C54"/>
</svg>
