<svg width="47" height="49" viewBox="0 0 47 49" fill="none" xmlns="http://www.w3.org/2000/svg">
<path d="M32.5 7.69995H27.7C26.4 7.69995 25.3 8.79995 25.3 10.1C25.3 11.4 26.4 12.5 27.7 12.5H30C31.3 12.5 32.4 13.6 32.4 14.9C32.4 16.2 31.3 17.3 30 17.3H25.1" stroke="#F1F7F7" stroke-width="2" stroke-miterlimit="10"/>
<path d="M29 5.19995V7.69995" stroke="#F1F7F7" stroke-width="2" stroke-miterlimit="10"/>
<path d="M29 17.1V19.4" stroke="#F1F7F7" stroke-width="2" stroke-miterlimit="10"/>
<path d="M28.8 23.6C35.0408 23.6 40.1 18.5408 40.1 12.3C40.1 6.05918 35.0408 1 28.8 1C22.5592 1 17.5 6.05918 17.5 12.3C17.5 18.5408 22.5592 23.6 28.8 23.6Z" stroke="#F1F7F7" stroke-width="2" stroke-miterlimit="10"/>
<path d="M20.2 12.3H22.8" stroke="#F1F7F7" stroke-width="2" stroke-miterlimit="10"/>
<path d="M34.8 12.3H37.5" stroke="#F1F7F7" stroke-width="2" stroke-miterlimit="10"/>
<path d="M0 43H8.6C8.6 43 8.7 43 8.7 42.9V25.1C8.7 25.1 8.7 25 8.6 25H0" stroke="#F1F7F7" stroke-width="2" stroke-miterlimit="10"/>
<path d="M8.70001 28H19.9C20.6 28.1 21.5 28.5 22.1 29L29.4 35.8C31.5 37.4 29.3 40.9 27.3 39.1L19.8 33.7V36.3L26.8 42.9C26.8 42.9 31 43.3 31.6 43.4L39.4 40.3C40.7 39.8 42.2 39.7 43.5 40.2C44.5 40.6 45.4 41 45.6 41.5L32.2 46.9C31.7 47.1 24.5 47.1 24.5 47.1L8.90001 39.5" stroke="#F1F7F7" stroke-width="2" stroke-miterlimit="10"/>
<path d="M27.5 34.4C31.8 34.4 35.4 37.7 35.9 41.8" stroke="#F1F7F7" stroke-width="2" stroke-miterlimit="10"/>
<path d="M28.8 23.6V34.8" stroke="#F1F7F7" stroke-width="2" stroke-miterlimit="10"/>
<path d="M36.3 28.2C36.3 28.2 35.1 31.4 33.7 32C32.2 32.6 29.1 31.1 29.1 31.1C29.1 31.1 30.3 27.9 31.7 27.3C33.2 26.7 36.3 28.2 36.3 28.2Z" stroke="#F1F7F7" stroke-width="2" stroke-miterlimit="10"/>
<path d="M11.6 12.4H15.7" stroke="#F1F7F7" stroke-width="2" stroke-miterlimit="10"/>
<path d="M12.6 6.5L16.4 7.9" stroke="#F1F7F7" stroke-width="2" stroke-miterlimit="10"/>
<path d="M44.9 6.30005L41.1 7.70005" stroke="#F1F7F7" stroke-width="2" stroke-miterlimit="10"/>
<path d="M46 12.2H41.9" stroke="#F1F7F7" stroke-width="2" stroke-miterlimit="10"/>
<path d="M44.9 18.1L41.2 16.7" stroke="#F1F7F7" stroke-width="2" stroke-miterlimit="10"/>
<path d="M12.7 18.2001L16.5 16.8" stroke="#F1F7F7" stroke-width="2" stroke-miterlimit="10"/>
</svg>
